<svg width="354" height="354" viewBox="0 0 354 354" fill="none" xmlns="http://www.w3.org/2000/svg">
<path d="M176.7 348.4C271.527 348.4 348.4 271.527 348.4 176.7C348.4 81.8727 271.527 5 176.7 5C81.8727 5 5 81.8727 5 176.7C5 271.527 81.8727 348.4 176.7 348.4Z" fill="black" stroke="white" stroke-width="10" stroke-miterlimit="10"/>
<path d="M219.812 326.3C234.759 326.3 246.876 313.3 246.876 297.264C246.876 281.228 234.759 268.228 219.812 268.228C204.865 268.228 192.748 281.228 192.748 297.264C192.748 313.3 204.865 326.3 219.812 326.3Z" fill="white" stroke="black" stroke-width="7" stroke-miterlimit="10"/>
<path d="M133.656 326.3C148.603 326.3 160.72 313.3 160.72 297.264C160.72 281.228 148.603 268.228 133.656 268.228C118.709 268.228 106.592 281.228 106.592 297.264C106.592 313.3 118.709 326.3 133.656 326.3Z" fill="white" stroke="black" stroke-width="7" stroke-miterlimit="10"/>
<path d="M282.236 311.204C282.236 311.204 277.748 290.396 274.144 288.016C274.144 288.016 282.236 277.204 278.224 270.54C278.224 270.54 300.664 192.34 271.152 160.448C271.152 160.448 235.656 168.88 191.728 210.972C190.164 210.224 188.328 209.476 186.22 208.864C177.244 206.28 169.628 208.116 167.112 208.864C165.004 209.476 163.168 210.224 161.604 210.972C117.676 168.88 82.18 160.448 82.18 160.448C52.736 192.34 75.108 270.54 75.108 270.54C71.028 277.136 79.188 288.016 79.188 288.016C75.584 290.396 71.096 311.204 71.096 311.204" stroke="white" stroke-width="10" stroke-miterlimit="10"/>
<path d="M133.656 308.008C139.214 308.008 143.72 303.502 143.72 297.944C143.72 292.386 139.214 287.88 133.656 287.88C128.098 287.88 123.592 292.386 123.592 297.944C123.592 303.502 128.098 308.008 133.656 308.008Z" fill="black"/>
<path d="M219.812 307.328C225.37 307.328 229.876 302.822 229.876 297.264C229.876 291.706 225.37 287.2 219.812 287.2C214.254 287.2 209.748 291.706 209.748 297.264C209.748 302.822 214.254 307.328 219.812 307.328Z" fill="black"/>
</svg>
